<svg xmlns="http://www.w3.org/2000/svg" width="1600" height="900" viewBox="0 0 1600 900">
<rect width="100%" height="100%" fill="#0A0F1C"/>
<style>
  .title { font-family: Arial, Helvetica, sans-serif; font-weight:700; fill:#FFFFFF; }
  .cyan { fill:#22D3EE; }
  .green { fill:#22E06B; }
  .orange { fill:#F5A524; }
  .muted { fill:#94A3B8; }
  .panel { fill:#111827; stroke:#334155; stroke-width:2; }
  .small { font-family: Arial, Helvetica, sans-serif; fill:#94A3B8; }
</style>
<text x="80" y="110" font-size="38" class="title cyan">NUCLEAR RESET</text>
<line x1="80" y1="132" x2="360" y2="132" stroke="#22D3EE" stroke-width="4"/>
<text x="80" y="250" font-size="96" class="title">OKLO</text>
<text x="80" y="410" font-size="132" class="title green">DOWN 77%</text>
<text x="80" y="545" font-size="96" class="title">FINALLY CHEAP?</text>
<rect x="80" y="610" width="740" height="112" rx="26" class="panel"/>
<text x="118" y="680" font-size="34" class="title orange">$44 TODAY  •  52-WEEK HIGH $193.84</text>
<text x="80" y="790" font-size="30" class="small">The business is improving. The valuation is the harder question.</text>
<circle cx="1210" cy="390" r="165" fill="none" stroke="#22D3EE" stroke-width="14"/>
<circle cx="1210" cy="390" r="95" fill="none" stroke="#22E06B" stroke-width="9"/>
<circle cx="1210" cy="390" r="27" fill="#FFFFFF"/>
<line x1="1210" y1="295" x2="1210" y2="220" stroke="#22D3EE" stroke-width="12"/>
<line x1="1292" y1="437" x2="1360" y2="476" stroke="#22D3EE" stroke-width="12"/>
<line x1="1128" y1="437" x2="1060" y2="476" stroke="#22D3EE" stroke-width="12"/>
<polyline points="1020,150 1090,205 1165,275 1240,365 1325,490 1420,650" fill="none" stroke="#F5A524" stroke-width="14"/>
<polygon points="1420,650 1372,618 1438,604" fill="#F5A524"/>
<text x="80" y="855" font-size="22" class="small">Deep Dive • Sep. 8, 2026</text>
<text x="1520" y="855" font-size="22" class="title muted" text-anchor="end">FREEDOM INCOME OPTIONS</text>
</svg>