<svg xmlns="http://www.w3.org/2000/svg" width="1600" height="900" viewBox="0 0 1600 900">
  <rect width="1600" height="900" fill="#0A0F1C"/>
  <rect width="1600" height="12" fill="#22D3EE"/>
  <g stroke="#142033" stroke-width="2" opacity="0.8">
    <line x1="0" y1="180" x2="1600" y2="180"/><line x1="0" y1="320" x2="1600" y2="320"/>
    <line x1="0" y1="460" x2="1600" y2="460"/><line x1="0" y1="600" x2="1600" y2="600"/>
    <line x1="0" y1="740" x2="1600" y2="740"/>
  </g>
  <g opacity="0.35" stroke="#EF4444" stroke-width="5" fill="#EF4444">
    <line x1="905" y1="175" x2="905" y2="280"/><rect x="891" y="205" width="28" height="45"/>
    <line x1="960" y1="220" x2="960" y2="345"/><rect x="946" y="250" width="28" height="52"/>
    <line x1="1015" y1="270" x2="1015" y2="390"/><rect x="1001" y="292" width="28" height="58"/>
    <line x1="1070" y1="315" x2="1070" y2="455"/><rect x="1056" y="350" width="28" height="60"/>
    <line x1="1125" y1="380" x2="1125" y2="510"/><rect x="1111" y="410" width="28" height="62"/>
    <line x1="1180" y1="430" x2="1180" y2="560"/><rect x="1166" y="465" width="28" height="58"/>
    <line x1="1235" y1="485" x2="1235" y2="620"/><rect x="1221" y="520" width="28" height="60"/>
    <line x1="1290" y1="545" x2="1290" y2="680"/><rect x="1276" y="580" width="28" height="62"/>
    <line x1="1345" y1="610" x2="1345" y2="735"/><rect x="1331" y="638" width="28" height="58"/>
  </g>
  <polyline points="900,180 980,260 1040,300 1120,410 1200,450 1260,560 1340,610 1410,735" fill="none" stroke="#EF4444" stroke-width="12"/>
  <polygon points="1390,705 1450,760 1380,765" fill="#EF4444"/>
  <rect x="58" y="65" width="8" height="182" fill="#EF4444"/>
  <text x="92" y="105" fill="#22D3EE" font-family="Arial,Helvetica,sans-serif" font-size="28" font-weight="800" letter-spacing="3">MARKET SELLOFF • SEPTEMBER 15, 2026</text>
  <text x="92" y="210" fill="#F8FAFC" font-family="Arial Black,Arial,Helvetica,sans-serif" font-size="94" font-weight="900">AI STOCKS</text>
  <text x="92" y="330" fill="#EF4444" font-family="Arial Black,Arial,Helvetica,sans-serif" font-size="116" font-weight="900">ARE FALLING</text>
  <rect x="92" y="382" width="775" height="136" rx="18" fill="#F5A524"/>
  <text x="480" y="470" text-anchor="middle" fill="#0A0F1C" font-family="Arial Black,Arial,Helvetica,sans-serif" font-size="65" font-weight="900">WHAT AM I BUYING?</text>
  <text x="92" y="602" fill="#F8FAFC" font-family="Arial,Helvetica,sans-serif" font-size="39" font-weight="800">I don’t need the bottom.</text>
  <text x="92" y="653" fill="#F8FAFC" font-family="Arial,Helvetica,sans-serif" font-size="39" font-weight="800">I need the right price.</text>
  <g font-family="Arial,Helvetica,sans-serif">
    <rect x="1060" y="145" width="450" height="112" rx="18" fill="#111827" stroke="#334155" stroke-width="2"/>
    <text x="1090" y="184" fill="#64748B" font-size="25" font-weight="800">OIL</text><text x="1090" y="231" fill="#F5A524" font-size="38" font-weight="900">ABOVE $100</text>
    <rect x="1060" y="278" width="450" height="112" rx="18" fill="#111827" stroke="#334155" stroke-width="2"/>
    <text x="1090" y="317" fill="#64748B" font-size="25" font-weight="800">10-YEAR YIELD</text><text x="1090" y="364" fill="#4EA8FF" font-size="38" font-weight="900">AROUND 5%</text>
    <rect x="1060" y="411" width="450" height="112" rx="18" fill="#111827" stroke="#334155" stroke-width="2"/>
    <text x="1090" y="450" fill="#64748B" font-size="25" font-weight="800">FED</text><text x="1090" y="497" fill="#22D3EE" font-size="38" font-weight="900">DECISION WED.</text>
  </g>
  <text x="92" y="825" fill="#D1D5DB" font-family="Arial,Helvetica,sans-serif" font-size="25" font-weight="800" letter-spacing="2">FREEDOM INCOME OPTIONS</text>
  <text x="1508" y="825" text-anchor="end" fill="#475569" font-family="Arial,Helvetica,sans-serif" font-size="15">FOR EDUCATIONAL PURPOSES ONLY. NOT FINANCIAL ADVICE.</text>
</svg>