<svg xmlns="http://www.w3.org/2000/svg" xmlns:xlink="http://www.w3.org/1999/xlink" width="1600" height="900" viewBox="0 0 1600 900">
  <defs>
    <linearGradient id="panel" x1="0" x2="1">
      <stop offset="0" stop-color="#111827"/>
      <stop offset="1" stop-color="#0f172a"/>
    </linearGradient>
    <filter id="shadow" x="-20%" y="-20%" width="140%" height="140%">
      <feDropShadow dx="0" dy="16" stdDeviation="18" flood-color="#000000" flood-opacity="0.38"/>
    </filter>
  </defs>
  <rect width="1600" height="900" fill="#0A0F1C"/>
  <rect x="0" y="0" width="1600" height="12" fill="#22D3EE"/>
  <g opacity="0.10" stroke="#22D3EE" stroke-width="2">
    <line x1="0" y1="180" x2="1600" y2="180"/><line x1="0" y1="320" x2="1600" y2="320"/>
    <line x1="0" y1="460" x2="1600" y2="460"/><line x1="0" y1="600" x2="1600" y2="600"/>
  </g>
  <g opacity="0.18">
    <line x1="1010" y1="120" x2="1010" y2="260" stroke="#22E06B" stroke-width="4"/><rect x="995" y="160" width="30" height="62" fill="#22E06B"/>
    <line x1="1060" y1="150" x2="1060" y2="300" stroke="#F5A524" stroke-width="4"/><rect x="1045" y="205" width="30" height="54" fill="#F5A524"/>
    <line x1="1110" y1="105" x2="1110" y2="245" stroke="#22E06B" stroke-width="4"/><rect x="1095" y="135" width="30" height="66" fill="#22E06B"/>
    <line x1="1160" y1="90" x2="1160" y2="230" stroke="#22E06B" stroke-width="4"/><rect x="1145" y="122" width="30" height="74" fill="#22E06B"/>
  </g>

  <text x="92" y="150" fill="#22D3EE" font-family="Arial, Helvetica, sans-serif" font-size="34" font-weight="800" letter-spacing="4">OPTIONS ASSIGNMENT</text>
  <text x="92" y="292" fill="#FFFFFF" font-family="Arial Black, Arial, Helvetica, sans-serif" font-size="116" font-weight="900">ASSIGNED.</text>
  <rect x="82" y="323" width="735" height="132" rx="8" fill="#F5A524"/>
  <text x="108" y="426" fill="#0A0F1C" font-family="Arial Black, Arial, Helvetica, sans-serif" font-size="112" font-weight="900">NOW WHAT?</text>
  <text x="92" y="520" fill="#E2E8F0" font-family="Arial, Helvetica, sans-serif" font-size="41" font-weight="700">It’s not a failed trade — it’s part of the plan.</text>

  <g filter="url(#shadow)">
    <rect x="900" y="300" width="610" height="395" rx="28" fill="url(#panel)" stroke="#334155" stroke-width="3"/>
    <text x="950" y="365" fill="#94A3B8" font-family="Arial, Helvetica, sans-serif" font-size="29" font-weight="700">SYMBOL</text>
    <text x="1160" y="365" fill="#94A3B8" font-family="Arial, Helvetica, sans-serif" font-size="29" font-weight="700">STATUS</text>
    <text x="1390" y="365" fill="#94A3B8" font-family="Arial, Helvetica, sans-serif" font-size="29" font-weight="700">SHARES</text>
    <line x1="940" y1="390" x2="1470" y2="390" stroke="#334155" stroke-width="2"/>

    <text x="950" y="455" fill="#FFFFFF" font-family="Arial, Helvetica, sans-serif" font-size="38" font-weight="800">PL</text>
    <rect x="1138" y="412" width="200" height="58" rx="11" fill="#F5A524"/>
    <text x="1170" y="451" fill="#0A0F1C" font-family="Arial, Helvetica, sans-serif" font-size="28" font-weight="900">ASSIGNED</text>
    <text x="1395" y="452" fill="#FFFFFF" font-family="Arial, Helvetica, sans-serif" font-size="34" font-weight="800">100</text>

    <line x1="940" y1="495" x2="1470" y2="495" stroke="#1E293B" stroke-width="2"/>
    <text x="950" y="555" fill="#FFFFFF" font-family="Arial, Helvetica, sans-serif" font-size="36" font-weight="800">OKLO</text>
    <rect x="1138" y="512" width="180" height="56" rx="11" fill="#22E06B"/>
    <text x="1171" y="550" fill="#052E16" font-family="Arial, Helvetica, sans-serif" font-size="26" font-weight="900">EXPIRED</text>
    <text x="1420" y="550" fill="#94A3B8" font-family="Arial, Helvetica, sans-serif" font-size="34">—</text>

    <line x1="940" y1="595" x2="1470" y2="595" stroke="#1E293B" stroke-width="2"/>
    <text x="950" y="655" fill="#FFFFFF" font-family="Arial, Helvetica, sans-serif" font-size="36" font-weight="800">NBIS</text>
    <rect x="1138" y="612" width="180" height="56" rx="11" fill="#22E06B"/>
    <text x="1171" y="650" fill="#052E16" font-family="Arial, Helvetica, sans-serif" font-size="26" font-weight="900">EXPIRED</text>
    <text x="1420" y="650" fill="#94A3B8" font-family="Arial, Helvetica, sans-serif" font-size="34">—</text>
  </g>

  <g>
    <text x="92" y="640" fill="#22D3EE" font-family="Arial, Helvetica, sans-serif" font-size="28" font-weight="800" letter-spacing="2">THE REAL QUESTION</text>
    <text x="92" y="690" fill="#FFFFFF" font-family="Arial, Helvetica, sans-serif" font-size="35" font-weight="800">Did you know what you’d do before you sold the put?</text>
  </g>

  <image href="https://freedomincomeoptions.com/static/fio-light-logo.png" x="92" y="748" width="280" height="90" preserveAspectRatio="xMidYMid meet"/>
  <text x="1490" y="830" text-anchor="end" fill="#475569" font-family="Arial, Helvetica, sans-serif" font-size="22">FOR EDUCATIONAL PURPOSES ONLY. NOT FINANCIAL ADVICE.</text>
</svg>